<?xml version="1.0" ?><!DOCTYPE svg  PUBLIC '-//W3C//DTD SVG 1.1//EN'  'http://www.w3.org/Graphics/SVG/1.1/DTD/svg11.dtd'><svg enable-background="new 0 0 87 56" height="56px" id="Layer_1" version="1.1" viewBox="0 0 87 56" width="87px" xml:space="preserve" xmlns="http://www.w3.org/2000/svg" xmlns:xlink="http://www.w3.org/1999/xlink"><g><path d="M86,52.636C86,53.941,84.84,55,83.407,55H3.593C2.161,55,1,53.941,1,52.636V3.365C1,2.059,2.161,1,3.593,1   h79.814C84.84,1,86,2.059,86,3.365V52.636z" fill="#F1F2F2"/><g><g><path d="M18.792,38.338c5.652,0.028,10.812-4.607,10.812-10.248c0-6.167-5.16-10.43-10.812-10.429h-4.865     C8.208,17.66,3.5,21.924,3.5,28.09c0,5.641,4.708,10.276,10.428,10.248H18.792z" fill="#004A97"/><path d="M16.098,33.581V22.384c2.251,0.862,3.85,3.042,3.854,5.599C19.947,30.538,18.349,32.716,16.098,33.581      M7.953,27.982c0.005-2.555,1.601-4.733,3.851-5.599V33.58C9.554,32.714,7.958,30.536,7.953,27.982 M13.951,18.517     c-5.227,0.002-9.462,4.237-9.463,9.466c0.001,5.226,4.236,9.462,9.463,9.462c5.229,0,9.464-4.236,9.465-9.462     C23.415,22.754,19.179,18.519,13.951,18.517" fill="#FFFFFF"/></g><g><path d="M34.177,27.563c0,0.837,0.599,0.936,1.131,0.936c2.35,0,3.121-1.772,3.121-3.393     c0-2.033-1.306-3.501-3.403-3.501c-0.447,0-0.652,0.031-0.849,0.043V27.563z M33.11,22.463c0-0.978-0.511-0.914-0.999-0.924     v-0.283c0.424,0.021,0.858,0.021,1.283,0.021c0.457,0,1.075-0.021,1.881-0.021c2.815,0,4.35,1.88,4.35,3.806     c0,1.077-0.631,3.784-4.48,3.784c-0.554,0-1.065-0.021-1.576-0.021c-0.489,0-0.969,0.01-1.457,0.021v-0.283     c0.651-0.063,0.968-0.085,0.999-0.826L33.11,22.463L33.11,22.463z" fill="#231F20"/><path d="M41.17,22.203c-0.284,0-0.533-0.261-0.533-0.544c0-0.272,0.262-0.523,0.533-0.523     c0.282,0,0.533,0.229,0.533,0.523S41.462,22.203,41.17,22.203 M40.006,28.563h0.207c0.304,0,0.521,0,0.521-0.358v-2.946     c0-0.479-0.163-0.544-0.565-0.761v-0.174c0.511-0.153,1.12-0.359,1.163-0.391c0.077-0.044,0.142-0.056,0.196-0.056     c0.054,0,0.076,0.065,0.076,0.153v4.174c0,0.359,0.239,0.359,0.545,0.359h0.183v0.283c-0.369,0-0.75-0.021-1.141-0.021     c-0.392,0-0.783,0.01-1.186,0.021L40.006,28.563L40.006,28.563z" fill="#231F20"/><path d="M43.366,25.324c0-0.402-0.12-0.511-0.63-0.718v-0.207c0.466-0.152,0.912-0.294,1.435-0.522     c0.033,0,0.065,0.021,0.065,0.109v0.707c0.619-0.445,1.152-0.816,1.883-0.816c0.923,0,1.249,0.674,1.249,1.522v2.805     c0,0.358,0.239,0.358,0.544,0.358h0.195v0.283c-0.381,0-0.762-0.021-1.152-0.021c-0.393,0-0.783,0.01-1.176,0.021v-0.283h0.195     c0.307,0,0.521,0,0.521-0.358V25.39c0-0.621-0.378-0.925-0.999-0.925c-0.349,0-0.903,0.282-1.263,0.522v3.217     c0,0.358,0.24,0.358,0.545,0.358h0.195v0.283c-0.382,0-0.762-0.021-1.154-0.021c-0.391,0-0.783,0.01-1.174,0.021v-0.283h0.196     c0.305,0,0.521,0,0.521-0.358v-2.88H43.366z" fill="#231F20"/><path d="M50.859,25.498c0.271,0,0.304-0.142,0.304-0.273c0-0.553-0.337-1-0.945-1     c-0.663,0-1.12,0.488-1.251,1.272L50.859,25.498L50.859,25.498z M48.936,25.847c-0.021,0.097-0.021,0.26,0,0.63     c0.063,1.032,0.729,1.88,1.598,1.88c0.6,0,1.066-0.326,1.47-0.728l0.151,0.152c-0.502,0.663-1.12,1.229-2.012,1.229     c-1.729,0-2.078-1.676-2.078-2.371c0-2.132,1.437-2.763,2.195-2.763c0.883,0,1.829,0.555,1.84,1.708c0,0.066,0,0.13-0.011,0.196     l-0.099,0.066L48.936,25.847L48.936,25.847z" fill="#231F20"/><path d="M52.35,28.563h0.293c0.305,0,0.521,0,0.521-0.358V25.15c0-0.337-0.4-0.403-0.564-0.49v-0.163     c0.793-0.337,1.229-0.621,1.328-0.621c0.063,0,0.096,0.033,0.096,0.142v0.979h0.023c0.271-0.424,0.729-1.121,1.391-1.121     c0.272,0,0.619,0.185,0.619,0.577c0,0.293-0.205,0.556-0.51,0.556c-0.338,0-0.338-0.263-0.719-0.263     c-0.186,0-0.794,0.251-0.794,0.904v2.554c0,0.358,0.217,0.358,0.522,0.358h0.607v0.283c-0.6-0.011-1.055-0.021-1.521-0.021     c-0.445,0-0.901,0.01-1.293,0.021V28.563L52.35,28.563z" fill="#231F20"/><path d="M56.535,27.335c0.142,0.718,0.576,1.327,1.372,1.327c0.64,0,0.879-0.391,0.879-0.771     c0-1.284-2.369-0.87-2.369-2.621c0-0.609,0.489-1.393,1.687-1.393c0.348,0,0.813,0.099,1.237,0.316l0.076,1.108h-0.249     c-0.109-0.685-0.488-1.076-1.188-1.076c-0.435,0-0.848,0.25-0.848,0.718c0,1.273,2.521,0.88,2.521,2.588     c0,0.717-0.574,1.479-1.869,1.479c-0.436,0-0.946-0.152-1.326-0.369l-0.12-1.25L56.535,27.335z" fill="#231F20"/><path d="M69.477,23.224h-0.271c-0.206-1.271-1.109-1.783-2.326-1.783c-1.252,0-3.066,0.837-3.066,3.446     c0,2.198,1.565,3.774,3.239,3.774c1.076,0,1.97-0.739,2.187-1.881l0.25,0.064l-0.25,1.588c-0.455,0.283-1.686,0.577-2.403,0.577     c-2.543,0-4.151-1.643-4.151-4.089c0-2.23,1.989-3.829,4.121-3.829c0.879,0,1.729,0.284,2.565,0.577L69.477,23.224z" fill="#231F20"/><path d="M69.869,28.563h0.205c0.306,0,0.521,0,0.521-0.358v-6.056c0-0.708-0.162-0.729-0.576-0.849v-0.174     c0.436-0.142,0.894-0.337,1.121-0.469c0.117-0.064,0.205-0.12,0.237-0.12c0.065,0,0.088,0.066,0.088,0.154v7.513     c0,0.359,0.24,0.359,0.546,0.359h0.182v0.283c-0.367,0-0.748-0.021-1.141-0.021c-0.391,0-0.781,0.01-1.185,0.021L69.869,28.563     L69.869,28.563z" fill="#231F20"/><path d="M76.852,28.249c0,0.196,0.119,0.207,0.303,0.207c0.132,0,0.295-0.011,0.438-0.011v0.229     c-0.469,0.043-1.359,0.271-1.566,0.337l-0.055-0.032v-0.88c-0.652,0.532-1.152,0.914-1.927,0.914     c-0.587,0-1.194-0.382-1.194-1.293v-2.785c0-0.283-0.043-0.555-0.651-0.609v-0.208c0.392-0.011,1.26-0.075,1.401-0.075     c0.121,0,0.121,0.075,0.121,0.315v2.806c0,0.327,0,1.261,0.945,1.261c0.369,0,0.857-0.282,1.314-0.662v-2.927     c0-0.217-0.521-0.336-0.912-0.445v-0.195c0.978-0.066,1.586-0.152,1.695-0.152c0.088,0,0.088,0.075,0.088,0.196V28.249     L76.852,28.249z" fill="#231F20"/><path d="M79.014,27.618c0,0.413,0.394,1.108,1.121,1.108c1.163,0,1.652-1.142,1.652-2.109     c0-1.175-0.891-2.153-1.739-2.153c-0.403,0-0.739,0.261-1.034,0.512V27.618z M79.014,24.66c0.437-0.369,1.023-0.783,1.621-0.783     c1.262,0,2.023,1.1,2.023,2.285c0,1.424-1.045,2.849-2.602,2.849c-0.805,0-1.229-0.262-1.512-0.382l-0.324,0.251l-0.229-0.119     c0.097-0.642,0.15-1.271,0.15-1.936v-4.676c0-0.708-0.164-0.729-0.576-0.849v-0.174c0.437-0.142,0.893-0.337,1.119-0.469     c0.121-0.064,0.207-0.12,0.24-0.12c0.065,0,0.086,0.066,0.086,0.154v3.969H79.014z" fill="#231F20"/><path d="M32.099,35.17h0.083c0.213,0,0.438-0.029,0.438-0.337v-3.101c0-0.309-0.225-0.338-0.438-0.338h-0.083     v-0.178c0.23,0,0.586,0.023,0.877,0.023c0.296,0,0.649-0.023,0.929-0.023v0.178H33.82c-0.211,0-0.437,0.029-0.437,0.338v3.101     c0,0.308,0.226,0.337,0.437,0.337h0.085v0.178c-0.284,0-0.641-0.021-0.936-0.021c-0.29,0-0.64,0.021-0.87,0.021V35.17z" fill="#231F20"/><path d="M33.878,35.323l0.001-0.128h-0.058c-0.212,0-0.464-0.035-0.465-0.362v-3.101     c0.001-0.328,0.253-0.363,0.465-0.363h0.057v-0.126c-0.272,0-0.615,0.022-0.902,0.022c-0.281,0-0.622-0.021-0.851-0.022v0.126     h0.057c0.211,0,0.463,0.035,0.463,0.363v3.101c0,0.327-0.252,0.362-0.463,0.362h-0.057v0.128     c0.229-0.003,0.563-0.024,0.844-0.024C33.257,35.299,33.599,35.32,33.878,35.323 M33.904,35.373     c-0.287,0-0.641-0.023-0.936-0.023c-0.289,0-0.638,0.023-0.87,0.023h-0.025v-0.025v-0.177v-0.026h0.025h0.083     c0.214-0.004,0.41-0.021,0.411-0.312v-3.101c-0.001-0.289-0.197-0.309-0.411-0.313h-0.108v-0.025v-0.203h0.025     c0.232,0,0.587,0.022,0.877,0.022c0.294,0,0.648-0.022,0.929-0.022h0.026v0.025v0.203h-0.026h-0.083     c-0.215,0.004-0.411,0.021-0.413,0.313v3.101c0.002,0.289,0.198,0.308,0.413,0.312h0.109v0.026v0.202H33.904z" fill="#231F20"/><path d="M37.969,34.182l0.012-0.011v-2.219c0-0.486-0.338-0.558-0.515-0.558h-0.131v-0.178     c0.279,0,0.551,0.023,0.828,0.023c0.243,0,0.486-0.023,0.728-0.023v0.178h-0.087c-0.249,0-0.527,0.047-0.527,0.752v2.691     c0,0.208,0.006,0.415,0.034,0.6h-0.225l-3.047-3.397v2.438c0,0.517,0.101,0.691,0.556,0.691h0.101v0.178     c-0.254,0-0.508-0.021-0.763-0.021c-0.266,0-0.538,0.021-0.805,0.021V35.17h0.083c0.408,0,0.532-0.277,0.532-0.749v-2.494     c0-0.331-0.273-0.53-0.538-0.53h-0.077v-0.179c0.225,0,0.455,0.023,0.68,0.023c0.178,0,0.35-0.023,0.527-0.023L37.969,34.182z" fill="#231F20"/><path d="M37.954,34.171v-0.003l-0.004-0.004L37.954,34.171z M37.97,34.182l0.018-0.017L37.97,34.182z      M38.086,35.409h0.196c-0.026-0.177-0.031-0.374-0.031-0.57v-2.692c0-0.709,0.298-0.776,0.552-0.777h0.063v-0.125     c-0.233,0.001-0.468,0.023-0.703,0.023c-0.271,0-0.534-0.022-0.802-0.023v0.125h0.104c0.182,0.001,0.54,0.082,0.54,0.584     l-0.008,2.236l-0.01,0.011l-0.021,0.021l-2.632-2.978c-0.176,0-0.348,0.022-0.527,0.022c-0.217,0-0.439-0.021-0.654-0.022     l-0.001,0.125h0.053c0.277,0.001,0.563,0.213,0.563,0.559v2.494c0,0.474-0.132,0.774-0.558,0.776l-0.058-0.002v0.128     c0.257-0.003,0.521-0.024,0.779-0.024c0.247,0,0.493,0.021,0.737,0.024v-0.126h-0.075c-0.466-0.002-0.581-0.204-0.581-0.721     v-2.504L38.086,35.409z M38.311,35.462l-0.243-0.009l-3.003-3.348v2.371c0.007,0.517,0.086,0.662,0.53,0.668h0.127v0.024v0.203     h-0.026c-0.256,0-0.51-0.022-0.763-0.022c-0.266,0-0.536,0.022-0.806,0.022h-0.025v-0.024v-0.203h0.025h0.084     c0.391-0.002,0.503-0.254,0.507-0.725v-2.494c0-0.314-0.259-0.506-0.513-0.506h-0.104v-0.027v-0.201h0.025     c0.227,0,0.459,0.022,0.681,0.022c0.176,0,0.347-0.022,0.547-0.015l2.6,2.928v-2.176c-0.002-0.471-0.316-0.527-0.488-0.531     h-0.157v-0.027v-0.201h0.026c0.279,0,0.553,0.022,0.828,0.022c0.241,0,0.483-0.022,0.728-0.022h0.026v0.025v0.203h-0.026h-0.088     c-0.243,0.006-0.494,0.027-0.501,0.727v2.691c0,0.207,0.006,0.414,0.034,0.594l0.006,0.029L38.311,35.462L38.311,35.462z" fill="#231F20"/><path d="M39.778,31.514c-0.444,0-0.462,0.106-0.551,0.538H39.05c0.022-0.166,0.053-0.331,0.07-0.503     c0.024-0.167,0.036-0.331,0.036-0.503h0.142c0.048,0.179,0.195,0.172,0.355,0.172h3.053c0.16,0,0.308-0.007,0.319-0.184     l0.143,0.022c-0.022,0.16-0.048,0.32-0.064,0.48c-0.012,0.158-0.012,0.318-0.012,0.479l-0.178,0.064     c-0.013-0.219-0.041-0.568-0.438-0.568h-0.971v3.148c0,0.457,0.208,0.509,0.491,0.509h0.113v0.179     c-0.231,0-0.646-0.022-0.965-0.022c-0.354,0-0.77,0.022-1.001,0.022V35.17h0.113c0.325,0,0.49-0.029,0.49-0.496v-3.16H39.778z" fill="#231F20"/><path d="M42.11,35.373c-0.232,0-0.646-0.023-0.965-0.023c-0.354,0-0.769,0.023-1.001,0.023H40.12v-0.025v-0.203     h0.024h0.113c0.325-0.008,0.457-0.011,0.465-0.471v-3.136h-0.944v-0.024v-0.025h0.995v3.187c0,0.476-0.191,0.522-0.516,0.523     H40.17v0.124c0.234-0.002,0.632-0.022,0.976-0.022c0.309,0,0.703,0.021,0.938,0.022v-0.124h-0.087     c-0.286-0.001-0.516-0.07-0.516-0.536v-3.174h0.995c0.397,0.001,0.45,0.338,0.462,0.559l0.129-0.048c0-0.153,0-0.31,0.011-0.464     c0.018-0.154,0.039-0.305,0.062-0.455l-0.09-0.016c-0.028,0.172-0.194,0.182-0.343,0.18h-3.053h-0.03     c-0.14,0-0.291-0.006-0.344-0.172h-0.098c-0.002,0.164-0.013,0.322-0.035,0.479c-0.018,0.162-0.044,0.318-0.066,0.476h0.126     c0.078-0.412,0.13-0.545,0.571-0.539v0.025v0.024c-0.438,0.009-0.429,0.082-0.525,0.521l-0.004,0.021h-0.021h-0.207l0.004-0.03     c0.023-0.166,0.054-0.332,0.071-0.504c0.024-0.164,0.036-0.328,0.036-0.498v-0.025h0.025h0.162l0.004,0.019     c0.04,0.149,0.149,0.149,0.301,0.153h0.03h3.053c0.164-0.004,0.284-0.006,0.295-0.16l0.002-0.027l0.026,0.005l0.168,0.027     l-0.005,0.024c-0.023,0.158-0.046,0.318-0.064,0.478c-0.011,0.158-0.011,0.317-0.011,0.478v0.02L43.1,32.044l-0.209,0.077     l-0.002-0.035c-0.016-0.223-0.039-0.545-0.413-0.545h-0.944v3.123c0.006,0.447,0.183,0.479,0.465,0.482h0.139v0.025v0.203H42.11     V35.373z" fill="#231F20"/><path d="M43.357,35.17h0.083c0.213,0,0.438-0.029,0.438-0.337v-3.101c0-0.309-0.225-0.338-0.438-0.338h-0.083     v-0.178c0.36,0,0.977,0.023,1.473,0.023c0.498,0,1.111-0.023,1.516-0.023c-0.011,0.254-0.006,0.646,0.012,0.905L46.18,32.17     c-0.029-0.385-0.1-0.691-0.721-0.691h-0.822v1.549h0.703c0.354,0,0.434-0.199,0.469-0.521h0.176     c-0.012,0.231-0.018,0.462-0.018,0.692c0,0.226,0.006,0.449,0.018,0.674l-0.176,0.037c-0.035-0.355-0.054-0.587-0.463-0.587     h-0.709v1.378c0,0.386,0.344,0.386,0.721,0.386c0.711,0,1.024-0.048,1.203-0.722l0.164,0.041     c-0.076,0.314-0.147,0.627-0.201,0.939c-0.379,0-1.06-0.021-1.59-0.021c-0.533,0-1.239,0.021-1.576,0.021L43.357,35.17     L43.357,35.17z" fill="#231F20"/><path d="M46.501,35.32c0.052-0.299,0.119-0.598,0.192-0.895l-0.117-0.029c-0.178,0.662-0.52,0.722-1.219,0.717     c-0.373,0-0.746,0-0.748-0.411v-1.403h0.736c0.412-0.003,0.453,0.245,0.483,0.581l0.128-0.024     c-0.012-0.22-0.018-0.438-0.018-0.654c0-0.223,0.006-0.443,0.018-0.667H45.83c-0.033,0.309-0.13,0.524-0.49,0.521h-0.73v-1.602     h0.85c0.615-0.005,0.717,0.313,0.744,0.686l0.127-0.035c-0.01-0.166-0.018-0.381-0.018-0.578c0-0.102,0.002-0.196,0.006-0.28     c-0.401,0.001-1.002,0.022-1.488,0.022s-1.085-0.021-1.446-0.022v0.125h0.057c0.21,0.001,0.463,0.037,0.464,0.364v3.101     c-0.001,0.327-0.254,0.363-0.464,0.364h-0.057v0.124c0.344,0,1.028-0.022,1.548-0.022C45.454,35.299,46.12,35.32,46.501,35.32      M46.523,35.373c-0.381,0-1.062-0.023-1.592-0.023c-0.533,0-1.237,0.023-1.575,0.023h-0.024v-0.025V35.17v-0.025h0.024h0.083     c0.214-0.004,0.409-0.021,0.412-0.312v-3.101c-0.003-0.289-0.198-0.309-0.412-0.313h-0.107v-0.025v-0.203h0.024     c0.361,0,0.977,0.022,1.473,0.022c0.498,0,1.111-0.022,1.516-0.022h0.025l-0.001,0.026c-0.004,0.089-0.006,0.194-0.006,0.306     c0,0.205,0.006,0.429,0.018,0.598l0.001,0.021l-0.02,0.006l-0.209,0.056v-0.03c-0.035-0.385-0.088-0.664-0.695-0.67h-0.798     l-0.001,1.498h0.68c0.342-0.002,0.401-0.177,0.441-0.496l0.002-0.023h0.023h0.203l-0.001,0.026     c-0.011,0.231-0.018,0.462-0.018,0.692c0,0.223,0.007,0.447,0.018,0.673l0.001,0.022L45.989,33.9l-0.207,0.041l-0.003-0.027     c-0.039-0.361-0.043-0.559-0.436-0.564h-0.685v1.354c0,0.358,0.312,0.358,0.696,0.358c0.713-0.004,0.998-0.039,1.176-0.701     l0.007-0.024l0.024,0.005l0.189,0.049l-0.006,0.024c-0.077,0.313-0.146,0.626-0.201,0.938l-0.004,0.021L46.523,35.373     L46.523,35.373z" fill="#231F20"/><path d="M48.279,33.216h0.291c0.593,0,0.91-0.223,0.91-0.922c0-0.524-0.338-0.862-0.864-0.862     c-0.179,0-0.253,0.018-0.337,0.022V33.216z M47.521,31.844c0-0.431-0.234-0.447-0.42-0.447h-0.106v-0.179     c0.19,0,0.557,0.023,0.918,0.023c0.354,0,0.64-0.023,0.952-0.023c0.744,0,1.408,0.2,1.408,1.041c0,0.533-0.354,0.858-0.821,1.043     l1.012,1.513c0.165,0.252,0.283,0.321,0.574,0.355v0.178c-0.196,0-0.386-0.021-0.58-0.021c-0.185,0-0.374,0.021-0.558,0.021     c-0.455-0.597-0.846-1.236-1.229-1.916h-0.392v1.268c0,0.455,0.214,0.472,0.484,0.472h0.106v0.179     c-0.338,0-0.679-0.022-1.019-0.022c-0.283,0-0.562,0.022-0.857,0.022v-0.18h0.107c0.219,0,0.42-0.1,0.42-0.318V31.844     L47.521,31.844z" fill="#231F20"/><path d="M48.57,33.191c0.584-0.006,0.88-0.209,0.886-0.896c-0.003-0.519-0.324-0.838-0.84-0.841     c-0.159,0-0.234,0.016-0.312,0.021v1.715H48.57z M48.279,33.243h-0.025V31.43l0.023-0.002c0.08-0.007,0.158-0.023,0.339-0.023     c0.538,0,0.891,0.352,0.891,0.892c-0.001,0.705-0.341,0.947-0.937,0.947H48.279L48.279,33.243z M48.279,33.404h0.404l0.008,0.015     c0.386,0.679,0.773,1.317,1.209,1.904c0.182,0,0.371-0.024,0.556-0.024c0.188,0,0.371,0.021,0.556,0.021v-0.129     c-0.277-0.033-0.406-0.117-0.568-0.362l-1.03-1.54l0.028-0.012c0.463-0.184,0.808-0.498,0.809-1.02     c-0.001-0.822-0.641-1.012-1.384-1.016c-0.312,0-0.597,0.023-0.952,0.023c-0.348,0-0.698-0.022-0.893-0.023v0.125h0.082     c0.185,0.001,0.444,0.031,0.444,0.476v3.007c0,0.239-0.223,0.346-0.444,0.348h-0.082v0.123c0.285,0,0.555-0.021,0.832-0.021     c0.33,0,0.666,0.021,0.992,0.021v-0.123h-0.08c-0.271-0.002-0.512-0.034-0.512-0.502v-1.291H48.279z M51.038,35.373     c-0.199,0-0.388-0.023-0.582-0.023c-0.181,0-0.369,0.023-0.575,0.015c-0.454-0.595-0.844-1.23-1.227-1.906h-0.35v1.239     c0.008,0.445,0.187,0.441,0.459,0.447h0.133v0.025v0.203h-0.025c-0.339,0-0.682-0.023-1.018-0.023     c-0.283,0-0.562,0.023-0.858,0.023h-0.024v-0.025v-0.203h0.024h0.106c0.213,0,0.394-0.094,0.395-0.293v-3.008     c-0.005-0.419-0.209-0.417-0.395-0.423h-0.131v-0.024v-0.205h0.023c0.191,0,0.558,0.023,0.918,0.023     c0.354,0,0.637-0.023,0.951-0.023c0.748,0.002,1.434,0.209,1.436,1.067c0,0.534-0.354,0.867-0.809,1.056l0.992,1.486     c0.166,0.246,0.27,0.309,0.558,0.344l0.021,0.004v0.021v0.203H51.038L51.038,35.373z" fill="#231F20"/><path d="M55.055,34.182l0.012-0.011v-2.219c0-0.486-0.338-0.558-0.515-0.558h-0.13v-0.178     c0.277,0,0.549,0.023,0.828,0.023c0.243,0,0.484-0.023,0.729-0.023v0.178h-0.09c-0.248,0-0.525,0.047-0.525,0.752v2.691     c0,0.208,0.006,0.415,0.035,0.6h-0.226l-3.047-3.397v2.438c0,0.517,0.101,0.691,0.556,0.691h0.102v0.178     c-0.254,0-0.51-0.021-0.764-0.021c-0.268,0-0.539,0.021-0.806,0.021V35.17h0.083c0.408,0,0.533-0.277,0.533-0.749v-2.494     c0-0.331-0.271-0.53-0.539-0.53h-0.077v-0.179c0.226,0,0.457,0.023,0.683,0.023c0.176,0,0.349-0.023,0.525-0.023L55.055,34.182z" fill="#231F20"/><path d="M55.04,34.171v-0.003l-0.005-0.004L55.04,34.171z M55.055,34.182l0.021-0.017L55.055,34.182z      M55.173,35.409h0.194c-0.026-0.177-0.031-0.374-0.031-0.57v-2.692c0-0.709,0.301-0.775,0.553-0.777h0.063v-0.125     c-0.231,0.001-0.468,0.023-0.701,0.023c-0.272,0-0.535-0.022-0.803-0.023v0.125h0.104c0.183,0.002,0.54,0.082,0.54,0.584     l-0.009,2.236L55.072,34.2l-0.018,0.021l-2.634-2.978c-0.177,0-0.348,0.022-0.526,0.022c-0.22,0-0.439-0.021-0.655-0.022v0.125     h0.052c0.277,0.002,0.563,0.212,0.563,0.559v2.492c0,0.476-0.133,0.776-0.558,0.778l-0.058-0.002v0.128     c0.256-0.003,0.52-0.024,0.779-0.024c0.248,0,0.493,0.021,0.737,0.024v-0.126H52.68c-0.466-0.002-0.58-0.203-0.582-0.721v-2.504     L55.173,35.409z M55.396,35.462l-0.242-0.009l-3.004-3.348v2.371c0.008,0.518,0.086,0.662,0.531,0.668h0.125v0.024v0.203h-0.024     c-0.257,0-0.511-0.022-0.765-0.022c-0.265,0-0.537,0.022-0.805,0.022h-0.025v-0.024v-0.203h0.025h0.083     c0.392-0.002,0.502-0.254,0.506-0.727v-2.492c0-0.316-0.258-0.506-0.512-0.506h-0.104v-0.025v-0.203h0.026     c0.228,0,0.458,0.022,0.681,0.022c0.176,0,0.346-0.022,0.545-0.016l2.602,2.929v-2.176c-0.001-0.471-0.316-0.529-0.488-0.531     h-0.156v-0.025v-0.203h0.025c0.28,0,0.553,0.022,0.829,0.022c0.24,0,0.483-0.022,0.728-0.022h0.025v0.025v0.203h-0.025h-0.088     c-0.244,0.006-0.496,0.027-0.502,0.727v2.691c0,0.207,0.006,0.412,0.035,0.594l0.003,0.029L55.396,35.462L55.396,35.462z" fill="#231F20"/><path d="M57.793,31.88h-0.012l-0.551,1.677h1.105L57.793,31.88z M56.93,34.502c-0.06,0.2-0.132,0.355-0.132,0.461     c0,0.178,0.25,0.208,0.444,0.208h0.066v0.177c-0.238-0.012-0.479-0.021-0.719-0.021c-0.213,0-0.425,0.011-0.638,0.021v-0.177     h0.036c0.229,0,0.426-0.137,0.514-0.385l0.946-2.718c0.077-0.219,0.184-0.516,0.221-0.733c0.188-0.063,0.427-0.183,0.537-0.254     c0.019-0.006,0.028-0.013,0.048-0.013c0.018,0,0.028,0,0.042,0.019c0.017,0.047,0.034,0.103,0.054,0.147l1.088,3.097     c0.071,0.206,0.143,0.424,0.219,0.603c0.072,0.168,0.195,0.237,0.392,0.237h0.035v0.177c-0.267-0.012-0.532-0.021-0.815-0.021     c-0.289,0-0.586,0.011-0.889,0.021v-0.177h0.064c0.136,0,0.367-0.022,0.367-0.172c0-0.076-0.054-0.235-0.119-0.427l-0.229-0.687     h-1.344L56.93,34.502z" fill="#231F20"/><path d="M57.768,31.889l0.015-0.005L57.768,31.889z M57.266,33.527h1.036l-0.515-1.586L57.266,33.527z      M57.195,33.58l0.565-1.727h0.021h0.012v0.025l-0.006,0.002l0.006-0.002v-0.025h0.02l0.562,1.727H57.195z M58.404,35.32     c0.294-0.01,0.58-0.021,0.863-0.021c0.273,0,0.531,0.012,0.789,0.021v-0.125h-0.01c-0.201,0.003-0.343-0.077-0.414-0.252     c-0.078-0.178-0.148-0.397-0.22-0.604l-1.089-3.096c-0.02-0.048-0.035-0.101-0.051-0.144c-0.006-0.006-0.004-0.006-0.01-0.006     h-0.011c-0.013,0-0.021,0.004-0.034,0.008c-0.113,0.074-0.352,0.189-0.527,0.236c-0.035,0.225-0.143,0.52-0.219,0.739     l-0.947,2.716c-0.09,0.257-0.299,0.402-0.539,0.402h-0.008v0.123c0.201-0.01,0.406-0.021,0.611-0.021     c0.229,0,0.462,0.013,0.688,0.021v-0.123H57.24c-0.192-0.004-0.463-0.022-0.469-0.232c0-0.117,0.071-0.27,0.131-0.47l0.024,0.008     l-0.024-0.008l0.193-0.634h1.381l0.236,0.703c0.066,0.19,0.12,0.349,0.12,0.436c-0.009,0.182-0.258,0.193-0.392,0.197h-0.039     v0.125H58.404z M60.082,35.373c-0.266-0.012-0.533-0.023-0.814-0.023c-0.289,0-0.584,0.014-0.888,0.023l-0.026,0.001v-0.026     v-0.203h0.025h0.064c0.138,0,0.341-0.03,0.342-0.146c0.001-0.067-0.053-0.229-0.117-0.418l-0.227-0.67h-1.305l-0.185,0.598     c-0.06,0.201-0.132,0.358-0.13,0.455c0.001,0.146,0.223,0.181,0.419,0.181h0.091v0.026v0.203l-0.025-0.001     c-0.236-0.012-0.479-0.023-0.716-0.023c-0.211,0-0.426,0.014-0.637,0.023l-0.027,0.001v-0.026v-0.203h0.025h0.034     c0.222,0,0.404-0.127,0.49-0.367l0.947-2.717c0.076-0.219,0.184-0.513,0.234-0.748c0.186-0.063,0.424-0.184,0.537-0.254     c0.018-0.008,0.033-0.015,0.058-0.015c0.015-0.001,0.046,0.002,0.065,0.033c0.017,0.049,0.035,0.103,0.053,0.149l1.09,3.096     c0.07,0.207,0.141,0.426,0.219,0.602c0.067,0.157,0.178,0.221,0.366,0.221h0.062v0.026v0.203L60.082,35.373z" fill="#231F20"/><path d="M60.344,31.514c-0.443,0-0.462,0.106-0.551,0.538h-0.178c0.023-0.166,0.054-0.331,0.07-0.503     c0.023-0.167,0.035-0.331,0.035-0.503h0.145c0.046,0.179,0.193,0.172,0.354,0.172h3.055c0.158,0,0.307-0.007,0.318-0.184     l0.141,0.022c-0.021,0.16-0.045,0.32-0.063,0.48c-0.014,0.158-0.014,0.318-0.014,0.479L63.48,32.08     c-0.012-0.219-0.041-0.568-0.438-0.568H62.07v3.148c0,0.457,0.209,0.509,0.49,0.509h0.113v0.179c-0.23,0-0.645-0.022-0.965-0.022     c-0.354,0-0.77,0.022-1,0.022V35.17h0.111c0.326,0,0.492-0.029,0.492-0.496v-3.16H60.344z" fill="#231F20"/><path d="M62.675,35.373c-0.231,0-0.647-0.023-0.965-0.023c-0.354,0-0.769,0.023-1,0.023h-0.024v-0.025v-0.203     h0.024h0.112c0.326-0.008,0.457-0.011,0.465-0.471v-3.136h-0.943v-0.024v-0.025h0.995v3.187c0,0.476-0.19,0.522-0.517,0.522     h-0.088v0.127c0.234-0.004,0.632-0.024,0.976-0.024c0.31,0,0.705,0.021,0.938,0.024v-0.127h-0.088     c-0.285,0-0.515-0.069-0.516-0.535v-3.174h0.996c0.396,0.001,0.449,0.338,0.46,0.559l0.129-0.048c0-0.153,0.001-0.31,0.013-0.464     c0.018-0.152,0.039-0.305,0.062-0.455l-0.091-0.016c-0.026,0.172-0.193,0.182-0.342,0.18h-3.054h-0.03     c-0.139,0.001-0.289-0.006-0.344-0.172h-0.097c-0.002,0.164-0.015,0.322-0.037,0.479c-0.017,0.162-0.044,0.32-0.065,0.476h0.127     c0.078-0.412,0.129-0.547,0.571-0.539v0.025v0.024c-0.438,0.008-0.429,0.082-0.524,0.521l-0.006,0.021h-0.021h-0.208l0.004-0.03     c0.025-0.166,0.055-0.332,0.071-0.502c0.024-0.166,0.034-0.33,0.034-0.5v-0.025h0.027h0.16l0.006,0.019     c0.041,0.149,0.149,0.149,0.301,0.153h0.029h3.055c0.164-0.004,0.283-0.006,0.293-0.159l0.002-0.028l0.027,0.005l0.167,0.027     l-0.004,0.024c-0.024,0.158-0.047,0.318-0.063,0.478c-0.014,0.158-0.014,0.317-0.014,0.478v0.02l-0.017,0.007l-0.21,0.077v-0.035     c-0.018-0.223-0.039-0.545-0.413-0.545h-0.944v3.123c0.006,0.447,0.184,0.479,0.465,0.482h0.14v0.025v0.203h-0.025V35.373z" fill="#231F20"/><path d="M63.952,35.17h0.083c0.213,0,0.438-0.029,0.438-0.337v-3.101c0-0.309-0.225-0.338-0.438-0.338h-0.083     v-0.178c0.229,0,0.585,0.023,0.875,0.023c0.296,0,0.651-0.023,0.931-0.023v0.178h-0.083c-0.215,0-0.438,0.029-0.438,0.338v3.101     c0,0.308,0.225,0.337,0.438,0.337h0.083v0.178c-0.285,0-0.641-0.021-0.936-0.021c-0.291,0-0.641,0.021-0.87,0.021V35.17z" fill="#231F20"/><path d="M65.73,35.32v-0.125h-0.057c-0.213,0-0.464-0.035-0.464-0.362v-3.101c0-0.328,0.251-0.363,0.464-0.364     h0.057v-0.125c-0.273,0.001-0.615,0.022-0.903,0.022c-0.281,0-0.62-0.021-0.851-0.022v0.125h0.059     c0.21,0.001,0.462,0.036,0.463,0.364v3.101c-0.001,0.327-0.253,0.362-0.463,0.362h-0.059v0.125     c0.229-0.002,0.563-0.021,0.846-0.021C65.107,35.299,65.451,35.32,65.73,35.32 M65.758,35.373c-0.287,0-0.641-0.023-0.936-0.023     c-0.29,0-0.641,0.023-0.87,0.023h-0.025v-0.025V35.17v-0.025h0.025h0.083c0.213-0.004,0.408-0.021,0.41-0.312v-3.101     c-0.002-0.289-0.197-0.309-0.41-0.313h-0.108v-0.025v-0.203h0.025c0.229,0,0.587,0.022,0.875,0.022     c0.295,0,0.649-0.022,0.931-0.022h0.024v0.025v0.203h-0.024h-0.083c-0.217,0.004-0.411,0.021-0.414,0.313v3.101     c0.003,0.289,0.197,0.308,0.414,0.312h0.107v0.025v0.203H65.758z" fill="#231F20"/><path d="M68.206,35.176c1.147,0,1.349-1.012,1.349-1.874c0-0.864-0.467-1.913-1.449-1.913     c-1.035,0-1.344,0.924-1.344,1.717C66.762,34.164,67.248,35.176,68.206,35.176 M68.116,31.129c1.262,0,2.268,0.781,2.268,2.042     c0,1.361-0.977,2.267-2.235,2.267c-1.256,0-2.215-0.853-2.215-2.123C65.934,32.081,66.887,31.129,68.116,31.129" fill="#231F20"/><path d="M66.736,33.104c0.002-0.795,0.313-1.742,1.369-1.742c1.004,0.003,1.474,1.07,1.475,1.939     c-0.001,0.862-0.204,1.899-1.374,1.899v-0.025V35.15c1.125-0.002,1.319-0.986,1.321-1.85c0-0.857-0.461-1.885-1.422-1.887     c-1.017,0-1.315,0.9-1.318,1.689c0.001,1.055,0.48,2.043,1.419,2.047v0.023v0.025C67.225,35.2,66.738,34.171,66.736,33.104      M65.907,33.313c0.003-1.246,0.966-2.209,2.209-2.211v0.026v0.024c-1.218,0-2.157,0.94-2.158,2.16     c0.002,1.258,0.946,2.096,2.188,2.096c1.248,0,2.211-0.891,2.211-2.239c0-1.245-0.989-2.015-2.241-2.017v-0.024v-0.026     c1.271,0.002,2.29,0.791,2.293,2.067c-0.002,1.376-0.99,2.29-2.263,2.292C66.882,35.46,65.91,34.6,65.907,33.313" fill="#231F20"/><path d="M74.371,34.182l0.012-0.011v-2.219c0-0.486-0.338-0.558-0.516-0.558h-0.128v-0.178     c0.276,0,0.55,0.023,0.825,0.023c0.244,0,0.486-0.023,0.729-0.023v0.178h-0.09c-0.248,0-0.526,0.047-0.526,0.752v2.691     c0,0.208,0.006,0.415,0.036,0.6h-0.226l-3.049-3.397v2.438c0,0.517,0.102,0.691,0.557,0.691h0.102v0.178     c-0.254,0-0.509-0.021-0.763-0.021c-0.267,0-0.539,0.021-0.806,0.021V35.17h0.082c0.41,0,0.533-0.277,0.533-0.749v-2.494     c0-0.331-0.271-0.53-0.539-0.53h-0.076v-0.179c0.226,0,0.457,0.023,0.682,0.023c0.178,0,0.35-0.023,0.525-0.023L74.371,34.182z" fill="#231F20"/><path d="M74.357,34.171v-0.003l-0.006-0.004L74.357,34.171z M74.371,34.182l0.02-0.017L74.371,34.182z      M74.489,35.409h0.194c-0.025-0.177-0.031-0.374-0.031-0.57v-2.692c0-0.711,0.3-0.775,0.553-0.777h0.064v-0.125     c-0.235,0.001-0.469,0.023-0.705,0.023c-0.27,0-0.533-0.022-0.801-0.023v0.125h0.104c0.184,0.002,0.54,0.082,0.54,0.584     L74.4,34.189l-0.01,0.011l-0.02,0.021l-2.635-2.978c-0.174,0-0.346,0.022-0.525,0.022c-0.218,0-0.439-0.021-0.654-0.022v0.125     h0.051c0.278,0.002,0.563,0.212,0.563,0.559v2.494c0,0.474-0.132,0.774-0.558,0.776l-0.059-0.002v0.128     c0.258-0.003,0.521-0.024,0.78-0.024c0.247,0,0.492,0.021,0.737,0.024v-0.126h-0.076c-0.465-0.002-0.581-0.203-0.581-0.721     v-2.504L74.489,35.409z M74.715,35.462l-0.244-0.009l-3.004-3.348v2.371c0.008,0.518,0.086,0.662,0.53,0.666h0.127v0.027v0.202     H72.1c-0.257,0-0.511-0.022-0.764-0.022c-0.266,0-0.537,0.022-0.807,0.022h-0.024v-0.024v-0.205h0.024h0.084     c0.391,0,0.503-0.252,0.507-0.723v-2.494c0-0.316-0.259-0.506-0.513-0.506h-0.104v-0.025v-0.203h0.023     c0.229,0,0.459,0.022,0.683,0.022c0.177,0,0.347-0.022,0.546-0.015l2.602,2.928v-2.176c-0.002-0.471-0.317-0.527-0.49-0.531     h-0.156v-0.025v-0.203h0.028c0.276,0,0.55,0.022,0.825,0.022c0.242,0,0.483-0.022,0.729-0.022h0.024v0.025v0.203h-0.024h-0.09     c-0.243,0.006-0.495,0.029-0.5,0.727v2.691c0,0.207,0.004,0.414,0.032,0.594l0.006,0.029L74.715,35.462L74.715,35.462z" fill="#231F20"/><path d="M77.109,31.88h-0.012l-0.552,1.677h1.108L77.109,31.88z M76.245,34.502c-0.058,0.2-0.13,0.355-0.13,0.461     c0,0.178,0.25,0.208,0.443,0.208h0.065v0.177c-0.237-0.012-0.479-0.021-0.717-0.021c-0.214,0-0.427,0.011-0.638,0.021v-0.177     h0.032c0.231,0,0.429-0.137,0.515-0.385l0.949-2.718c0.076-0.219,0.184-0.516,0.219-0.733c0.188-0.063,0.426-0.183,0.539-0.254     c0.017-0.006,0.028-0.013,0.047-0.013c0.018,0,0.029,0,0.041,0.019c0.019,0.047,0.035,0.103,0.054,0.147l1.089,3.097     c0.07,0.206,0.143,0.424,0.219,0.603c0.071,0.168,0.195,0.237,0.392,0.237H79.4v0.177c-0.268-0.012-0.533-0.021-0.817-0.021     c-0.289,0-0.586,0.011-0.888,0.021v-0.177h0.064c0.137,0,0.367-0.022,0.367-0.172c0-0.076-0.053-0.235-0.119-0.427l-0.23-0.687     h-1.342L76.245,34.502z" fill="#231F20"/><path d="M77.086,31.889l0.012-0.005L77.086,31.889z M76.583,33.527h1.035l-0.515-1.584L76.583,33.527z      M76.512,33.58l0.567-1.727h0.019h0.014v0.025l-0.008,0.002l0.008-0.002v-0.025h0.018l0.561,1.727H76.512z M77.721,35.32     c0.293-0.01,0.58-0.021,0.862-0.021c0.274,0,0.533,0.012,0.791,0.021l-0.001-0.125h-0.01c-0.2,0.002-0.34-0.077-0.413-0.252     c-0.078-0.178-0.148-0.397-0.22-0.604l-1.09-3.096c-0.018-0.048-0.035-0.101-0.05-0.142c-0.005-0.008-0.005-0.008-0.009-0.008     H77.57c-0.014,0-0.021,0.004-0.033,0.008c-0.115,0.072-0.352,0.191-0.527,0.236c-0.035,0.225-0.145,0.52-0.22,0.739l-0.948,2.716     c-0.09,0.257-0.297,0.402-0.539,0.402h-0.009v0.123c0.204-0.01,0.407-0.021,0.613-0.021c0.229,0,0.464,0.013,0.69,0.021v-0.123     h-0.041c-0.191-0.004-0.461-0.022-0.47-0.233c0.002-0.116,0.074-0.269,0.134-0.469l0.022,0.008l-0.022-0.008l0.193-0.634h1.38     l0.237,0.703c0.064,0.19,0.119,0.349,0.119,0.436c-0.01,0.182-0.258,0.193-0.393,0.197h-0.04v0.125H77.721z M79.396,35.373     c-0.266-0.01-0.531-0.023-0.813-0.023c-0.288,0-0.585,0.015-0.888,0.023l-0.024,0.001v-0.026v-0.203h0.024h0.064     c0.139,0,0.342-0.03,0.342-0.146c0.002-0.067-0.053-0.229-0.117-0.418l-0.227-0.67h-1.306l-0.183,0.598     c-0.061,0.204-0.131,0.358-0.129,0.454c0,0.146,0.221,0.182,0.416,0.182h0.092v0.025v0.204l-0.027-0.001     c-0.234-0.01-0.479-0.023-0.714-0.023c-0.212,0-0.425,0.015-0.638,0.023l-0.025,0.001v-0.026v-0.203h0.025h0.032     c0.222,0,0.406-0.127,0.492-0.367l0.946-2.717c0.076-0.219,0.183-0.513,0.234-0.748c0.187-0.064,0.424-0.184,0.539-0.254     c0.014-0.008,0.03-0.015,0.055-0.015c0.017-0.001,0.048,0.002,0.064,0.035c0.018,0.047,0.035,0.101,0.055,0.147l1.088,3.096     c0.072,0.207,0.144,0.426,0.22,0.602c0.069,0.157,0.177,0.221,0.366,0.221h0.062v0.025v0.204L79.396,35.373z" fill="#231F20"/><path d="M80.893,34.77c0,0.235,0.164,0.307,0.354,0.332c0.242,0.018,0.509,0.018,0.781-0.014     c0.248-0.029,0.461-0.172,0.568-0.318c0.094-0.131,0.146-0.297,0.184-0.427h0.171c-0.064,0.337-0.147,0.669-0.22,1.005     c-0.52,0-1.041-0.021-1.562-0.021s-1.042,0.021-1.563,0.021V35.17h0.082c0.213,0,0.445-0.029,0.445-0.396v-3.041     c0-0.309-0.232-0.338-0.445-0.338h-0.082v-0.178c0.313,0,0.621,0.023,0.936,0.023c0.303,0,0.6-0.023,0.9-0.023v0.178h-0.149     c-0.226,0-0.399,0.006-0.399,0.318V34.77L80.893,34.77z" fill="#231F20"/><path d="M82.709,35.32c0.068-0.32,0.146-0.635,0.21-0.952h-0.122c-0.037,0.127-0.09,0.286-0.182,0.416     c-0.111,0.153-0.33,0.298-0.588,0.329c-0.153,0.017-0.309,0.022-0.452,0.022c-0.115,0-0.226-0.005-0.333-0.012     c-0.192-0.021-0.379-0.104-0.379-0.356v-3.055c0-0.328,0.209-0.346,0.429-0.346h0.122v-0.125     c-0.291,0.001-0.579,0.023-0.873,0.023c-0.307,0-0.605-0.022-0.909-0.023v0.125h0.058c0.211,0,0.47,0.037,0.47,0.363v3.043     c0,0.383-0.259,0.422-0.47,0.422h-0.058v0.125c0.513,0,1.022-0.022,1.537-0.022C81.684,35.299,82.197,35.32,82.709,35.32      M82.73,35.373c-0.522,0-1.043-0.023-1.563-0.023c-0.521,0-1.042,0.023-1.563,0.023H79.58v-0.025v-0.203h0.025h0.082     c0.215-0.004,0.418-0.02,0.42-0.369v-3.043c-0.002-0.289-0.205-0.308-0.42-0.312H79.58v-0.024v-0.205h0.025     c0.314,0,0.623,0.023,0.936,0.023c0.301,0,0.596-0.023,0.9-0.023h0.022v0.026v0.203h-0.022h-0.149     c-0.229,0.006-0.372-0.004-0.377,0.293v3.056c0.002,0.221,0.146,0.278,0.331,0.306c0.104,0.008,0.215,0.012,0.329,0.012     c0.146,0,0.295-0.007,0.448-0.022c0.24-0.028,0.447-0.168,0.55-0.309c0.092-0.127,0.144-0.289,0.18-0.419l0.005-0.021h0.02h0.203     l-0.004,0.031c-0.067,0.34-0.149,0.67-0.222,1.006l-0.005,0.021L82.73,35.373L82.73,35.373z" fill="#231F20"/><path d="M82.777,31.674h0.074c0.08,0,0.116-0.061,0.116-0.158c0-0.101-0.058-0.136-0.122-0.136h-0.068V31.674     L82.777,31.674z M82.566,32.003v-0.03c0.076-0.011,0.092-0.01,0.092-0.056v-0.462c0-0.064-0.008-0.088-0.088-0.084v-0.032h0.318     c0.109,0,0.211,0.054,0.211,0.166c0,0.093-0.063,0.161-0.147,0.188l0.103,0.142c0.049,0.065,0.104,0.127,0.137,0.147v0.021H83.07     c-0.06,0-0.109-0.123-0.225-0.287h-0.068v0.207c0,0.04,0.015,0.039,0.092,0.05v0.03H82.566z M82.877,32.18     c0.28,0,0.493-0.236,0.493-0.506s-0.211-0.507-0.493-0.507c-0.279,0-0.493,0.237-0.493,0.507S82.598,32.18,82.877,32.18      M82.877,31.05c0.357,0,0.623,0.273,0.623,0.624c0,0.352-0.266,0.622-0.623,0.622c-0.355,0-0.623-0.271-0.623-0.622     C82.254,31.323,82.521,31.05,82.877,31.05" fill="#231F20"/></g></g></g></svg>